<svg width="495" height="704" viewBox="0 0 495 704" fill="none" xmlns="http://www.w3.org/2000/svg">
<g clip-path="url(#clip0_29_2898)">
<path d="M377.239 32.3703L382.435 17.2058C382.435 17.2058 374.672 12.2059 357.425 16.8759C356.435 20.7624 377.229 32.3703 377.229 32.3703H377.239Z" fill="#1A1A1A" stroke="black" stroke-width="1.0309" stroke-miterlimit="10"/>
<path d="M284.004 493.606C260.19 493.606 237.335 489.586 220.655 486.658C214.913 485.648 209.954 484.772 205.645 484.174C157.729 477.442 133.482 451.092 124.359 441.164L124.245 441.041L124.08 441.01C115.41 439.278 109.617 435.649 106.854 430.216C102.988 422.619 106.307 413.712 107.029 411.949L213.913 415.722C221.16 431.639 228.995 434.989 234.294 434.989C238.16 434.989 240.995 433.268 242.005 432.546L257.118 450.164L257.51 449.783C257.685 449.608 275.798 431.825 306.014 384.413C334.91 339.074 332.735 267.014 332.436 259.911L439.619 263.571C440.155 270.127 445.258 346.899 398.826 431.268C375.744 473.215 338.178 493.617 283.994 493.617L284.004 493.606ZM311.354 443.546C309.199 443.546 302.138 443.886 301.777 448.329C301.612 450.34 302.024 451.927 302.993 453.051C304.148 454.391 305.849 454.752 307.076 454.824C307.251 454.824 316.766 454.762 323.333 454.577C328.704 454.432 330.601 451.669 330.57 449.855C330.498 445.556 326.622 443.597 322.818 443.546C321.581 443.536 319.941 443.525 318.292 443.525C315.065 443.525 311.849 443.546 311.756 443.546C311.756 443.546 311.601 443.546 311.344 443.546H311.354ZM331.879 420.505C329.725 420.505 322.663 420.887 322.302 425.835C322.127 428.206 322.601 430.041 323.684 431.288C324.838 432.618 326.446 432.989 327.591 433.072C327.787 433.072 337.292 433 343.858 432.794C349.229 432.629 351.126 429.567 351.095 427.546C351.023 422.753 347.147 420.557 343.343 420.515C342.106 420.505 340.467 420.495 338.817 420.495C335.591 420.495 332.384 420.515 332.281 420.515C332.281 420.515 332.127 420.515 331.869 420.515L331.879 420.505ZM350.126 389.073C345.683 389.073 340.827 390.671 340.549 395.176C340.106 402.248 344.095 403.33 345.838 403.464C346.064 403.464 355.549 403.382 362.116 403.145C367.487 402.949 369.383 399.454 369.353 397.145C369.28 391.65 365.404 389.135 361.611 389.073C360.373 389.052 358.734 389.052 357.085 389.052C353.868 389.052 350.662 389.073 350.549 389.073C350.549 389.073 350.394 389.073 350.137 389.073H350.126ZM364.322 354.754C359.879 354.754 355.023 356.476 354.745 361.3C354.322 368.62 357.879 370.022 360.033 370.207C360.27 370.207 369.755 370.125 376.311 369.867C381.672 369.661 383.579 365.909 383.548 363.434C383.476 357.868 379.167 354.899 374.94 354.826C371.301 354.775 364.909 354.765 364.744 354.765C364.744 354.765 364.579 354.765 364.322 354.765V354.754ZM375.239 315.838C370.796 315.838 365.94 317.559 365.662 322.384C365.239 329.703 368.796 331.105 370.95 331.291C371.188 331.291 380.672 331.208 387.228 330.951C392.589 330.744 394.496 326.992 394.465 324.518C394.393 318.611 390.517 315.91 386.723 315.848C385.486 315.827 383.837 315.827 382.198 315.827C378.981 315.827 375.785 315.848 375.662 315.848C375.662 315.848 375.497 315.848 375.249 315.848L375.239 315.838Z" fill="#1A1A1A"/>
<path d="M332.993 260.437L439.165 264.066C439.495 268.272 440.588 286.962 437.031 313.869C433.31 342.043 423.588 385.228 398.393 431.02C385.785 453.927 368.311 470.679 346.436 480.834C328.632 489.091 308.22 493.101 284.004 493.101C259.788 493.101 237.407 489.091 220.748 486.153C214.996 485.143 210.037 484.266 205.717 483.658C157.987 476.957 133.833 450.7 124.74 440.814L124.513 440.567L124.183 440.505C115.678 438.814 110.008 435.268 107.318 429.989C103.751 422.979 106.483 414.773 107.38 412.485L213.583 416.227C220.913 432.144 228.882 435.505 234.304 435.505C237.892 435.505 240.624 434.072 241.923 433.227L256.386 450.082L257.098 450.917L257.881 450.154C258.056 449.979 276.211 432.144 306.468 384.692C322.343 359.775 328.704 327.013 331.23 303.91C333.591 282.333 333.168 264.932 332.993 260.447M375.682 315.343C375.62 315.343 375.466 315.343 375.249 315.343C370.569 315.343 365.456 317.188 365.157 322.374C364.693 330.425 369.023 331.662 370.909 331.817H370.961H371.012C371.105 331.817 380.662 331.724 387.259 331.476C392.991 331.25 395.022 327.198 394.991 324.518C394.909 318.271 390.785 315.405 386.734 315.343C385.631 315.322 384.105 315.312 382.198 315.312C379.095 315.312 376.002 315.332 375.682 315.332M360.044 370.733H360.095C360.188 370.733 369.744 370.64 376.342 370.393C382.074 370.166 384.105 366.115 384.074 363.434C384.002 357.538 379.424 354.393 374.95 354.321C371.383 354.27 365.208 354.259 364.765 354.259C364.703 354.259 364.549 354.259 364.322 354.259C359.641 354.259 354.528 356.105 354.229 361.29C353.765 369.341 358.095 370.579 359.982 370.733H360.033M350.559 388.578C350.497 388.578 350.343 388.578 350.126 388.578C345.446 388.578 340.343 390.31 340.034 395.166C339.57 402.701 343.91 403.856 345.796 404H345.838H345.879C345.972 404 355.528 403.918 362.126 403.681C367.858 403.475 369.889 399.671 369.858 397.155C369.775 391.31 365.652 388.64 361.6 388.578C360.363 388.557 358.714 388.557 357.075 388.557C353.961 388.557 350.869 388.578 350.549 388.578M332.302 420C332.24 420 332.096 420 331.869 420C329.601 420 322.168 420.423 321.776 425.804C321.591 428.319 322.106 430.278 323.282 431.639C324.292 432.794 325.766 433.474 327.549 433.598H327.591H327.632C327.725 433.598 337.281 433.525 343.869 433.319C349.611 433.144 351.642 429.773 351.6 427.546C351.518 422.412 347.394 420.052 343.343 420.01C342.106 420 340.456 419.99 338.817 419.99C335.694 419.99 332.58 420.01 332.292 420.01M311.756 443.051C311.705 443.051 311.55 443.051 311.323 443.051C309.055 443.051 301.633 443.432 301.241 448.309C301.066 450.463 301.519 452.174 302.581 453.412C303.591 454.577 305.127 455.247 307.014 455.36H307.045H307.076C307.169 455.36 316.715 455.298 323.312 455.113C329.055 454.958 331.085 451.886 331.055 449.865C330.972 445.226 326.848 443.103 322.797 443.051C321.56 443.041 319.911 443.03 318.271 443.03C315.137 443.03 312.014 443.051 311.746 443.051M331.879 259.385C331.879 259.385 336.096 336.239 305.56 384.145C275.025 432.051 257.129 449.422 257.129 449.422L242.057 431.845C242.057 431.845 238.923 434.474 234.263 434.474C228.81 434.474 221.274 430.866 214.212 415.217L106.658 411.423C106.658 411.423 95.3387 435.814 123.946 441.515C136.049 454.68 159.997 478.287 205.542 484.679C222.82 487.101 252.221 494.122 283.973 494.122C325.684 494.122 371.466 482.019 399.269 431.505C448.227 342.538 440.083 263.055 440.083 263.055L331.89 259.365L331.879 259.385ZM375.62 316.374C375.62 316.374 378.888 316.353 382.156 316.353C383.796 316.353 385.435 316.353 386.672 316.374C390.383 316.436 393.837 319.054 393.909 324.528C393.94 326.796 392.177 330.25 387.167 330.435C380.507 330.693 370.95 330.775 370.95 330.775C368.662 330.58 365.755 328.951 366.136 322.415C366.466 316.724 373.414 316.353 375.198 316.353C375.466 316.353 375.61 316.353 375.61 316.353L375.62 316.374ZM360.033 369.713C357.745 369.517 354.837 367.888 355.219 361.352C355.549 355.661 362.497 355.29 364.281 355.29C364.549 355.29 364.693 355.29 364.693 355.29C364.693 355.29 371.167 355.29 374.878 355.352C378.589 355.414 382.909 357.971 382.981 363.455C383.012 365.723 381.249 369.177 376.239 369.362C369.579 369.62 360.023 369.702 360.023 369.702L360.033 369.713ZM350.497 389.609C350.497 389.609 353.765 389.588 357.033 389.588C358.672 389.588 360.312 389.588 361.549 389.609C365.26 389.661 368.713 392.094 368.786 397.166C368.816 399.269 367.054 402.464 362.043 402.64C355.384 402.877 345.827 402.959 345.827 402.959C343.539 402.784 340.642 401.269 341.013 395.217C341.343 389.939 348.291 389.599 350.075 389.599C350.343 389.599 350.487 389.599 350.487 389.599L350.497 389.609ZM332.25 421.031C332.25 421.031 335.518 421.01 338.786 421.01C340.425 421.01 342.065 421.01 343.302 421.031C347.013 421.072 350.466 423.175 350.539 427.557C350.57 429.371 348.807 432.134 343.797 432.288C337.137 432.495 327.58 432.567 327.58 432.567C325.292 432.412 322.385 431.113 322.766 425.876C323.096 421.32 330.044 421.031 331.828 421.031C332.096 421.031 332.24 421.031 332.24 421.031H332.25ZM311.725 444.072C311.725 444.072 314.993 444.051 318.261 444.051C319.9 444.051 321.539 444.051 322.776 444.072C326.488 444.113 329.941 445.979 330.013 449.865C330.044 451.473 328.281 453.927 323.271 454.061C316.612 454.247 307.055 454.308 307.055 454.308C304.767 454.174 301.859 453.01 302.241 448.37C302.571 444.329 309.519 444.061 311.302 444.061C311.57 444.061 311.715 444.061 311.715 444.061L311.725 444.072Z" fill="black"/>
<path d="M425.795 268.653C404.867 268.653 330.982 266.643 327.488 266.55C326.787 266.158 322.426 263.561 320.952 258.21C319.601 253.282 321.014 247.499 325.147 241.015L325.24 240.87V240.695C325.127 239.53 325.003 237.582 324.838 234.871C320.374 161.646 308.952 112.152 290.911 87.7711C261.211 47.6483 252.778 40.7 252.438 40.432L252.005 40.0918L245.108 50.0297C244.067 49.2978 241.314 47.638 237.624 47.638C232.583 47.638 225.191 50.8338 218.562 66.0087C203.326 67.1014 116.606 73.4003 111.699 73.7508C110.936 73.0498 107.534 69.6581 107.452 64.7716C107.38 60.6274 109.668 56.4728 114.235 52.4111C115.555 51.2462 116.957 49.9369 118.472 48.5349C134.74 33.4837 161.956 8.29877 227.902 2.78344C241.077 1.68037 256.51 0.505144 272.912 0.505144C319.673 0.505144 352.518 9.98945 373.322 29.4941C375.363 31.4013 377.445 33.2569 379.651 35.2259C392.187 46.3803 406.393 59.0295 418.733 87.9772C433.083 121.636 441.938 170.759 445.794 238.139V238.211L445.815 238.273C446.041 238.974 446.598 252.643 440.155 261.488C436.691 266.241 431.856 268.653 425.774 268.653H425.795Z" fill="#1A1A1A"/>
<path d="M272.912 1.0309C293.653 1.0309 311.261 2.86591 326.725 6.64932C346.003 11.3605 361.559 19.1748 372.971 29.8756C375.012 31.793 377.105 33.6487 379.311 35.6177C391.806 46.7411 405.97 59.3388 418.269 88.1834C432.598 121.791 441.433 170.851 445.289 238.169V238.283L445.33 238.417C445.567 239.376 446.021 253.179 439.351 261.726C436.021 265.983 431.464 268.138 425.784 268.138C405.073 268.138 332.477 266.169 327.622 266.035C326.725 265.519 322.787 263.004 321.436 258.056C320.127 253.272 321.519 247.633 325.58 241.293L325.766 240.994L325.735 240.644C325.632 239.489 325.519 237.541 325.354 234.84C324.56 221.819 322.91 194.717 318.024 165.666C311.942 129.481 302.952 103.173 291.324 87.4618C261.582 47.2772 253.098 40.298 252.757 40.0196L251.892 39.3289L251.263 40.2361L244.974 49.3081C243.655 48.4627 241.026 47.1123 237.624 47.1123C232.459 47.1123 224.923 50.3184 218.212 65.5036C202.429 66.6376 118.761 72.7096 111.885 73.2147C110.947 72.3075 108.029 69.1529 107.957 64.7407C107.895 60.7614 110.122 56.7306 114.565 52.7822C115.885 51.607 117.307 50.2977 118.812 48.906C126.699 41.6072 137.513 31.6075 154.585 22.7108C174.759 12.2059 199.439 5.66997 227.944 3.28858C241.108 2.18552 256.531 1.0206 272.912 1.0206M272.912 -0.0103073C255.964 -0.0103073 240.191 1.23708 227.861 2.26799C155.399 8.31939 128.925 38.6588 113.895 52.0193C99.7716 64.5654 111.524 74.2765 111.524 74.2765C111.524 74.2765 204.171 67.5447 218.913 66.4932C225.346 51.607 232.428 48.1535 237.634 48.1535C242.15 48.1535 245.242 50.7616 245.242 50.7616L252.129 40.8341C252.129 40.8341 260.51 47.5452 290.509 88.0803C320.519 128.615 323.673 228.634 324.725 240.747C312.622 259.695 327.354 267.066 327.354 267.066C327.354 267.066 404.207 269.169 425.795 269.169C447.382 269.169 446.856 239.685 446.32 238.108C436.846 72.8127 398.94 52.8131 373.672 29.123C348.332 5.3607 308.076 1.71363e-06 272.912 1.71363e-06V-0.0103073Z" fill="black"/>
<path d="M379.672 320.301C390.012 320.24 393.208 320.301 393.239 320.301C391.898 317.26 388.991 316.064 386.744 315.972C383.713 315.838 375.693 315.972 375.693 315.972C375.693 315.972 366.167 315.673 365.765 322.126C365.435 327.497 367.177 330.497 370.631 331.136C370.631 331.136 369.27 320.363 379.672 320.301Z" fill="black" stroke="black" stroke-width="1.0309" stroke-miterlimit="10"/>
<path d="M368.085 359.424C378.425 359.362 382.641 359.311 382.672 359.311C381.332 356.27 377.414 355.187 375.157 355.084C372.126 354.95 364.105 355.084 364.105 355.084C364.105 355.084 355.023 354.692 354.631 361.135C354.301 366.506 355.837 369.331 359.291 369.97C359.291 369.97 357.693 359.486 368.085 359.424Z" fill="black" stroke="black" stroke-width="1.0309" stroke-miterlimit="10"/>
<path d="M354.188 393.31C364.528 393.248 368.239 393.228 368.27 393.238C366.93 390.516 363.507 389.228 361.25 389.135C358.219 389.021 350.178 389.114 350.178 389.114C350.178 389.114 340.683 389.104 340.281 394.887C339.951 399.702 342.085 402.516 345.549 403.093C345.549 403.093 343.797 393.382 354.198 393.32L354.188 393.31Z" fill="black" stroke="black" stroke-width="1.0309" stroke-miterlimit="10"/>
<path d="M335.931 424.247C346.271 424.196 350.374 424.072 350.405 424.072C349.064 421.67 345.25 420.907 343.003 420.825C339.972 420.722 331.951 420.825 331.951 420.825C331.951 420.825 322.869 420.515 322.477 425.598C322.148 429.835 323.426 432.515 326.879 433.02C326.879 433.02 325.539 424.299 335.931 424.247Z" fill="black" stroke="black" stroke-width="1.0309" stroke-miterlimit="10"/>
<path d="M315.405 446.907C325.745 446.865 329.787 446.876 329.817 446.876C328.477 444.742 324.725 443.7 322.467 443.628C319.436 443.536 311.364 443.608 311.364 443.608C311.364 443.608 302.334 443.587 301.942 448.102C301.612 451.865 303.189 454.36 306.643 454.814C306.643 454.814 305.004 446.948 315.395 446.896L315.405 446.907Z" fill="black" stroke="black" stroke-width="1.0309" stroke-miterlimit="10"/>
<path d="M223.779 57.0811C223.779 57.0811 221.367 46.669 236.459 34.3909C251.551 22.1129 270.087 -1.65975 308.138 2.7422" stroke="black" stroke-width="1.0309" stroke-miterlimit="10"/>
<path d="M390.878 10.9997C390.878 10.9997 393.331 12.9791 390.878 20.7005C388.424 28.422 382.105 44.4938 382.105 44.4938C382.105 44.4938 379.167 52.0194 363.507 52.9884C344.209 54.7409 266.623 57.0811 266.623 57.0811C266.623 57.0811 257.386 59.2872 253.675 53.6688" stroke="black" stroke-width="1.0309" stroke-miterlimit="10"/>
<path d="M376.373 50.2359L398.424 83.3485" stroke="black" stroke-width="1.0309" stroke-miterlimit="10"/>
<path d="M221.83 428.959C221.83 428.959 226.294 476.483 299.942 492.782" stroke="black" stroke-width="1.0309" stroke-miterlimit="10"/>
<path d="M432.444 296.591C432.444 296.591 403.156 411.825 378.156 443.412C366.579 457.628 336.941 474.999 320.828 475.256C304.715 475.524 268.396 467.298 256.293 449.391" stroke="black" stroke-width="1.0309" stroke-miterlimit="10"/>
<path d="M252.19 39.7825C320.477 -13.5564 359.27 32.9476 366.662 42.3701C381.311 61.0604 428.619 114.75 434.794 238.046" stroke="black" stroke-width="1.0309" stroke-miterlimit="10"/>
<path d="M357.559 17.9377C357.559 17.9377 380.332 16.2883 381.311 17.2779C382.29 18.2676 375.126 42.6794 372.889 43.5969C370.652 44.5144 262.871 49.6483 262.871 49.6483C262.871 49.6483 260.242 49.339 260.242 47.7823C260.242 46.2257 255.5 44.3804 255.5 44.3804C255.5 44.3804 251.026 51.4833 255.5 58.3285C259.974 65.1737 274.891 85.7917 277.076 87.0185C279.262 88.2453 395.96 84.9258 398.414 83.3382C400.867 81.7506 412.104 47.7823 412.104 47.7823C412.104 47.7823 414.475 41.7516 409.733 35.4321C404.991 29.1127 392.888 13.0615 392.888 13.0615C392.888 13.0615 390.424 8.58742 382.363 8.58742C371.837 8.58742 343.219 10.6698 343.219 10.6698L357.549 17.9377H357.559Z" fill="#1A1A1A" stroke="black" stroke-width="1.0309" stroke-miterlimit="10"/>
<path d="M218.913 66.5035C218.913 66.5035 227.573 42.5041 242.077 48.8648C256.469 55.1842 244.634 74.2868 244.634 74.2868L218.913 66.5035Z" fill="#666666" stroke="black" stroke-width="1.0309" stroke-miterlimit="10"/>
<path d="M88.9883 75.6786C88.9883 75.6786 105.338 54.7925 109.41 57.2872C108.225 59.7923 107.307 71.5343 111.514 74.2868C108.617 78.4826 88.978 75.6786 88.978 75.6786" fill="#666666"/>
<path d="M88.9883 75.6786C88.9883 75.6786 105.338 54.7925 109.41 57.2872C108.225 59.7923 107.307 71.5343 111.514 74.2868C108.617 78.4826 88.978 75.6786 88.978 75.6786" stroke="black" stroke-width="1.0309" stroke-miterlimit="10"/>
<path d="M213.903 415.01C213.903 415.01 222.861 441.051 238.387 433.68C253.912 426.309 241.325 409.928 241.325 409.928C241.325 409.928 213.367 409.505 213.903 415.01Z" fill="#666666" stroke="black" stroke-width="1.0309" stroke-miterlimit="10"/>
<path d="M87.7924 407.959C87.7924 407.959 100.483 428.67 104.524 425.34C103.38 420.515 106.349 411.217 106.349 411.217C106.349 411.217 90.1532 403.609 87.7924 407.959Z" fill="#666666"/>
<path d="M87.7924 407.959C87.7924 407.959 100.483 428.67 104.524 425.34C103.38 420.515 106.349 411.217 106.349 411.217C106.349 411.217 90.1532 403.609 87.7924 407.959" stroke="black" stroke-width="1.0309" stroke-miterlimit="10"/>
<path d="M215.635 414.516C214.81 414.516 213.985 414.505 213.14 414.474C202.841 414.165 191.975 414.103 180.471 414.041C123.379 413.722 58.6798 413.361 44.3708 381.197C38.0617 362.991 37.4947 128.45 37.4844 126.079C37.4844 125.945 37.1133 114.306 43.041 102.42C48.4944 91.4823 60.5869 78.0702 87.1636 76.3074C138.544 72.9157 218.15 67.0705 218.944 67.0087C219.006 67.019 233.459 68.3695 247.727 76.5239C260.85 84.0186 276.509 98.9976 276.551 127.739C276.643 183.243 274.901 347.528 274.891 349.177C274.891 349.342 274.798 365.744 267.448 381.918C257.623 403.547 240.18 414.505 215.614 414.505L215.635 414.516Z" fill="#666666"/>
<path d="M218.903 67.5344C220.068 67.6478 233.882 69.1942 247.51 76.9981C255.788 81.73 262.386 87.8226 267.108 95.0801C273.015 104.162 276.025 115.152 276.046 127.739C276.138 183.243 274.406 347.517 274.386 349.187C274.386 349.352 274.303 365.61 267.005 381.681C262.737 391.073 256.881 398.557 249.582 403.908C240.469 410.598 229.036 414 215.624 414C214.81 414 213.975 413.99 213.15 413.959C202.851 413.65 191.986 413.588 180.481 413.526C123.575 413.206 59.0715 412.846 44.8554 381.032C38.5772 362.568 37.9998 128.45 37.9998 126.048C37.9998 125.935 37.639 114.389 43.5255 102.616C51.381 86.8948 66.0816 78.2249 87.2048 76.8229C137.822 73.4827 215.831 67.7509 218.903 67.5241M218.913 66.4932C218.913 66.4932 139.1 72.359 87.1327 75.7919C35.1649 79.2352 36.9689 126.09 36.9689 126.09C36.9689 126.09 37.4741 362.878 43.8966 381.413C61.1952 420.299 150.822 413.134 213.119 415C213.965 415.021 214.8 415.041 215.624 415.041C275.406 415.041 275.406 349.198 275.406 349.198C275.406 349.198 277.159 183.903 277.066 127.749C276.973 71.5962 218.903 66.5138 218.903 66.5138L218.913 66.4932Z" fill="black"/>
<path d="M259.675 304.642C251.026 304.591 250.675 296.683 250.665 296.354L250.83 269.231C250.83 269.231 250.84 266.313 252.964 264.179C254.531 262.612 256.83 261.818 259.829 261.818C262.963 261.839 265.293 262.653 266.85 264.251C268.953 266.416 268.932 269.303 268.932 269.334L268.767 296.632C268.757 296.941 268.314 304.652 259.757 304.652H259.675V304.642Z" fill="#666666"/>
<path d="M259.84 261.303V262.334H259.933C262.819 262.354 265.015 263.117 266.479 264.602C268.438 266.602 268.427 269.303 268.427 269.344L268.262 296.591C268.252 296.9 267.809 304.137 259.768 304.137H259.685C251.551 304.085 251.201 296.663 251.191 296.385L251.355 269.231C251.355 268.952 251.448 262.334 259.84 262.334V261.303ZM259.84 261.303C250.263 261.303 250.325 269.231 250.325 269.231L250.16 296.374C250.16 296.374 250.407 305.116 259.675 305.168C259.706 305.168 259.737 305.168 259.768 305.168C268.932 305.168 269.293 296.632 269.293 296.632L269.458 269.344C269.458 269.344 269.633 261.354 259.943 261.303C259.912 261.303 259.871 261.303 259.84 261.303Z" fill="black"/>
<path d="M261.366 231.675C252.696 231.51 252.469 223.603 252.469 223.273L252.974 196.15C252.974 195.851 253.139 188.851 261.86 188.851H262.17C265.2 188.913 267.52 189.758 269.056 191.377C271.138 193.562 271.077 196.459 271.077 196.49L270.561 223.778C270.541 224.087 270.015 231.685 261.634 231.685H261.366V231.675Z" fill="#666666"/>
<path d="M261.85 189.356C261.953 189.356 262.046 189.356 262.149 189.356C265.036 189.408 267.221 190.202 268.664 191.707C270.602 193.727 270.551 196.428 270.551 196.469L270.046 223.716C270.025 224.015 269.551 231.149 261.634 231.149H261.376C253.242 230.994 252.984 223.562 252.984 223.283L253.489 196.14C253.489 195.861 253.675 189.356 261.86 189.356M261.86 188.325C252.5 188.325 252.459 196.129 252.459 196.129L251.953 223.263C251.953 223.263 252.098 232.005 261.355 232.18C261.448 232.18 261.541 232.18 261.634 232.18C270.623 232.18 271.077 223.768 271.077 223.768L271.582 196.49C271.582 196.49 271.86 188.511 262.17 188.325C262.056 188.325 261.953 188.325 261.85 188.325H261.86Z" fill="black"/>
<path d="M385.507 291.312C374.961 291.312 374.672 289.385 374.26 286.715L374.187 286.271C373.672 283.127 374.187 270.375 374.187 270.251L374.208 269.736L373.693 269.715C373.641 269.715 368.012 269.395 364.786 264.653C361.693 260.107 361.714 253.128 364.827 243.901H386.136C385.187 247.283 381.713 262.303 393.187 267.808L393.259 267.849H393.342C393.981 267.942 394.62 267.983 395.228 267.983C395.682 267.983 396.063 267.963 396.342 267.932L397.372 286.519L397.434 286.622C397.434 286.622 397.919 287.55 397.352 288.519C396.775 289.498 394.713 291.168 387.342 291.312C386.692 291.323 386.074 291.333 385.496 291.333L385.507 291.312Z" fill="#999999"/>
<path d="M385.476 244.406C384.342 248.839 381.785 262.89 392.971 268.261L393.125 268.334L393.29 268.354C393.95 268.437 394.61 268.478 395.239 268.478C395.465 268.478 395.682 268.478 395.867 268.468L396.857 286.416L396.878 286.653L396.981 286.849C397.022 286.921 397.321 287.56 396.909 288.261C396.486 288.972 394.702 290.642 387.342 290.787C386.692 290.797 386.084 290.807 385.496 290.807C380.703 290.807 377.662 290.385 376.198 289.508C375.146 288.88 374.992 288.137 374.765 286.642L374.693 286.189C374.187 283.096 374.693 270.395 374.703 270.272L374.744 269.251L373.724 269.2C373.672 269.2 368.291 268.88 365.219 264.354C362.27 260.004 362.27 253.303 365.208 244.417H385.476M386.837 243.386H364.466C355.518 269.447 373.682 270.231 373.682 270.231C373.682 270.231 373.157 283.127 373.682 286.354C374.187 289.426 373.971 291.828 385.507 291.828C386.094 291.828 386.713 291.828 387.373 291.807C400.795 291.539 397.898 286.354 397.898 286.354L396.847 267.334C396.847 267.334 396.259 267.447 395.249 267.447C394.744 267.447 394.125 267.416 393.424 267.334C380.785 261.282 386.847 243.386 386.847 243.386H386.837Z" fill="black"/>
<path d="M434.042 355.383C432.062 355.383 430.196 354.971 429.341 354.754C432.619 343.023 436.557 293.673 428.423 264.097C427.774 248.891 430.619 242.582 433.124 239.963C434.495 238.53 436.124 237.809 437.959 237.809C444.021 237.809 451.299 245.839 452.124 253.437C454.608 312.219 443.722 343.858 440.33 352.156C439.454 354.301 437.341 355.393 434.052 355.393L434.042 355.383Z" fill="#999999"/>
<path d="M437.949 238.314C443.784 238.314 450.784 246.087 451.598 253.458C454.072 312.147 443.227 343.682 439.846 351.96C439.052 353.899 437.103 354.878 434.042 354.878C432.444 354.878 430.918 354.6 429.97 354.383C433.227 341.744 436.949 293.271 428.928 264.014C428.3 249.025 431.052 242.86 433.485 240.314C434.753 238.994 436.258 238.314 437.949 238.314ZM437.949 237.283C432.145 237.283 427.032 244.035 427.898 264.169C436.32 294.704 431.846 344.847 428.691 355.105C428.691 355.105 431.238 355.899 434.042 355.899C436.846 355.899 439.639 355.177 440.804 352.342C443.175 346.548 455.247 315.229 452.629 253.375C451.804 245.736 444.443 237.283 437.949 237.283Z" fill="black"/>
<path d="M322.838 338.466C321.684 338.466 320.921 338.249 320.56 338.115C320.24 332.652 316.612 273.169 311.478 264.695C308.447 259.695 308.89 250.128 312.447 243.808C314.096 240.891 317.106 237.407 322.137 237.407C323.013 237.407 323.931 237.52 324.869 237.736C324.941 238.252 324.993 239.561 324.993 240.716C324.24 242.056 318.426 252.777 321.9 260.385C323.488 263.86 326.756 266.117 331.642 267.117C332.054 269.952 334.384 290.611 324.343 338.363C323.828 338.435 323.323 338.476 322.849 338.476L322.838 338.466Z" fill="#999999"/>
<path d="M322.137 236.891V237.922C322.869 237.922 323.622 238.004 324.395 238.159C324.446 238.736 324.477 239.705 324.477 240.582C323.477 242.386 317.941 252.963 321.426 260.602C323.044 264.148 326.323 266.478 331.178 267.55C331.673 271.395 333.529 292.013 323.91 337.909C323.539 337.95 323.189 337.971 322.838 337.971C322.024 337.971 321.436 337.858 321.055 337.755C320.622 330.487 317.024 272.87 311.911 264.447C308.962 259.581 309.416 250.262 312.89 244.087C314.467 241.283 317.354 237.943 322.127 237.943V236.912M322.127 236.912C309.849 236.912 306.148 256.942 311.024 264.983C316.292 273.674 320.055 338.487 320.055 338.487C320.055 338.487 320.962 339.002 322.828 339.002C323.385 339.002 324.024 338.95 324.756 338.837C335.807 286.447 332.085 266.695 332.085 266.695C312.612 263.014 325.508 240.87 325.508 240.87C325.508 240.87 325.508 237.314 325.24 237.314C324.147 237.035 323.106 236.912 322.127 236.912Z" fill="black"/>
<path d="M241.335 342.868L245.242 134.584C245.242 134.584 243.665 80.7094 194.707 81.7609C145.75 82.8124 86.2667 87.0288 86.2667 87.0288C86.2667 87.0288 36.7834 79.1321 34.6804 145.46C32.5773 211.789 32.567 339.713 32.567 339.713C32.567 339.713 29.0619 391.475 82.5761 394.465C146.801 398.042 186.285 399.207 186.285 399.207C186.285 399.207 240.314 397.599 241.335 342.878V342.868Z" fill="#BFD1ED" stroke="black" stroke-width="1.0309" stroke-miterlimit="10"/>
<path d="M132.4 314.735H125.369V344.62H122.936V314.735H115.977L115.998 313.704H132.389V314.735H132.4Z" fill="black"/>
<path d="M137.008 321.25H129.977V351.136H127.544V321.25H120.585L120.606 320.219H136.997V321.25H137.008Z" fill="black"/>
<path d="M73.9991 174.564C70.2054 168.874 65.9169 166.317 60.0613 166.317C54.2883 166.317 49.9997 168.874 46.206 174.564C42.6597 179.925 40.8453 187.1 40.8453 196.007C40.8453 204.832 42.6597 212.007 46.206 217.45C49.9997 223.141 54.2883 225.697 60.0613 225.697C65.9169 225.697 70.2054 223.141 73.9991 217.368C77.5454 212.007 79.3598 204.749 79.3598 196.007C79.3598 187.183 77.5454 180.008 73.9991 174.564ZM60.0613 222.233C56.9274 222.233 54.7006 220.914 52.6388 217.862C50.742 214.893 48.6802 207.553 48.6802 196.007C48.6802 184.379 50.742 177.039 52.7213 174.152C54.7006 171.101 56.9274 169.781 60.0613 169.781C63.2778 169.781 65.5045 171.101 67.4838 174.152C69.3807 177.121 71.4425 184.379 71.4425 196.007C71.4425 207.966 68.9683 214.646 67.8962 217.038C66.2468 220.749 63.9375 222.233 60.0613 222.233ZM115.129 174.564C111.335 168.874 107.047 166.317 101.191 166.317C95.4181 166.317 91.1295 168.874 87.3358 174.564C83.7895 179.925 81.9751 187.1 81.9751 196.007C81.9751 204.832 83.7895 212.007 87.3358 217.45C91.1295 223.141 95.4181 225.697 101.191 225.697C107.047 225.697 111.335 223.141 115.129 217.368C118.675 212.007 120.49 204.749 120.49 196.007C120.49 187.183 118.675 180.008 115.129 174.564ZM101.191 222.233C98.0572 222.233 95.8304 220.914 93.7686 217.862C91.8718 214.893 89.81 207.553 89.81 196.007C89.81 184.379 91.8718 177.039 93.8511 174.152C95.8304 171.101 98.0572 169.781 101.191 169.781C104.408 169.781 106.634 171.101 108.614 174.152C110.51 177.121 112.572 184.379 112.572 196.007C112.572 207.966 110.098 214.646 109.026 217.038C107.377 220.749 105.067 222.233 101.191 222.233ZM122.363 222.563C122.363 223.8 122.857 224.872 123.682 225.78C124.589 226.687 125.662 227.099 126.899 227.099C128.136 227.099 129.208 226.687 130.115 225.78C131.022 224.955 131.435 223.8 131.435 222.563C131.435 221.326 131.022 220.254 130.115 219.429C129.208 218.522 128.136 218.11 126.899 218.11C125.662 218.11 124.589 218.522 123.682 219.429C122.857 220.254 122.363 221.326 122.363 222.563ZM122.363 193.368C122.363 194.605 122.857 195.677 123.682 196.585C124.589 197.492 125.662 197.904 126.899 197.904C128.136 197.904 129.208 197.492 130.115 196.585C131.022 195.677 131.435 194.605 131.435 193.368C131.435 192.131 131.022 191.059 130.115 190.152C129.208 189.327 128.136 188.832 126.899 188.832C125.579 188.832 124.507 189.327 123.682 190.234C122.857 191.141 122.363 192.213 122.363 193.368ZM167.589 174.564C163.795 168.874 159.507 166.317 153.651 166.317C147.878 166.317 143.59 168.874 139.796 174.564C136.25 179.925 134.435 187.1 134.435 196.007C134.435 204.832 136.25 212.007 139.796 217.45C143.59 223.141 147.878 225.697 153.651 225.697C159.507 225.697 163.795 223.141 167.589 217.368C171.135 212.007 172.95 204.749 172.95 196.007C172.95 187.183 171.135 180.008 167.589 174.564ZM153.651 222.233C150.517 222.233 148.29 220.914 146.229 217.862C144.332 214.893 142.27 207.553 142.27 196.007C142.27 184.379 144.332 177.039 146.311 174.152C148.29 171.101 150.517 169.781 153.651 169.781C156.868 169.781 159.094 171.101 161.074 174.152C162.971 177.121 165.032 184.379 165.032 196.007C165.032 207.966 162.558 214.646 161.486 217.038C159.837 220.749 157.527 222.233 153.651 222.233ZM210.29 172.647C206.354 166.743 201.905 164.09 195.829 164.09C189.84 164.09 185.39 166.743 181.455 172.647C177.775 178.209 175.893 185.653 175.893 194.894C175.893 204.049 177.775 211.493 181.455 217.141C185.39 223.045 189.84 225.697 195.829 225.697C201.905 225.697 206.354 223.045 210.29 217.055C213.969 211.493 215.852 203.964 215.852 194.894C215.852 185.738 213.969 178.294 210.29 172.647ZM195.829 222.103C192.578 222.103 190.268 220.734 188.129 217.569C186.161 214.488 184.021 206.873 184.021 194.894C184.021 182.829 186.161 175.214 188.214 172.219C190.268 169.053 192.578 167.684 195.829 167.684C199.166 167.684 201.477 169.053 203.53 172.219C205.498 175.299 207.637 182.829 207.637 194.894C207.637 207.301 205.07 214.232 203.958 216.713C202.247 220.563 199.851 222.103 195.829 222.103Z" fill="black"/>
<g clip-path="url(#clip1_29_2898)">
<path d="M178.326 262.385C175.565 262.643 173.052 264.266 171.102 266.809L176.101 274.192C176.744 273.489 177.502 273.014 178.326 272.836V262.385Z" fill="#BBBDBF"/>
<path d="M167.048 281.278C167.216 285.356 168.321 289.067 170.037 291.947L175.036 284.564C174.56 283.614 174.238 282.495 174.118 281.278H167.048Z" fill="#929497"/>
<path d="M170.044 268.383C168.321 271.263 167.216 274.964 167.048 279.051H174.118C174.245 277.834 174.567 276.716 175.042 275.766L170.044 268.383Z" fill="#A6A8AB"/>
<path d="M187.064 266.809C185.107 264.266 182.601 262.643 179.833 262.385V272.836C180.658 273.014 181.415 273.499 182.058 274.192L187.057 266.809H187.064Z" fill="#231F20"/>
<path d="M183.13 284.564L188.129 291.947C189.851 289.067 190.95 285.356 191.118 281.278H184.048C183.921 282.495 183.599 283.614 183.13 284.564Z" fill="#58595B"/>
<path d="M191.118 279.051C190.95 274.974 189.845 271.263 188.122 268.383L183.124 275.766C183.599 276.716 183.921 277.834 184.042 279.051H191.111H191.118Z" fill="#404041"/>
<path d="M171.109 293.52C173.059 296.064 175.572 297.687 178.333 297.934V287.493C177.508 287.305 176.751 286.83 176.108 286.137L171.109 293.52Z" fill="#808284"/>
<path d="M179.833 297.934C182.594 297.687 185.107 296.054 187.057 293.52L182.058 286.137C181.415 286.84 180.658 287.315 179.833 287.503V297.944V297.934Z" fill="#6D6E70"/>
</g>
<g clip-path="url(#clip2_29_2898)">
<path style="mix-blend-mode:multiply" d="M103.037 294.9C103.037 296.962 97.8462 298.632 91.439 298.632C85.0317 298.632 79.8442 296.962 79.8442 294.9C79.8442 292.838 85.0352 291.168 91.4425 291.168C97.8497 291.168 103.041 292.838 103.041 294.9H103.037Z" fill="url(#paint0_radial_29_2898)"/>
<path d="M91.4425 295.498C85.0948 295.498 79.9318 287.905 79.9318 278.576C79.9318 269.246 85.0948 261.648 91.4425 261.648C97.7901 261.648 102.953 269.241 102.953 278.576C102.953 287.91 97.7901 295.503 91.4425 295.503V295.498Z" fill="url(#paint1_radial_29_2898)"/>
<path d="M91.4425 261.777C97.7411 261.777 102.865 269.313 102.865 278.576C102.865 287.838 97.7411 295.374 91.4425 295.374C85.1439 295.374 80.0194 287.838 80.0194 278.576C80.0194 269.313 85.1439 261.777 91.4425 261.777ZM91.4425 261.519C85.0352 261.519 79.8442 269.153 79.8442 278.576C79.8442 287.998 85.0352 295.632 91.4425 295.632C97.8497 295.632 103.041 287.998 103.041 278.576C103.041 269.153 97.8462 261.519 91.4425 261.519Z" fill="#8C98A0"/>
<path style="mix-blend-mode:screen" opacity="0.6" d="M91.3619 282.081C91.3619 285.416 89.5252 288.117 87.2574 288.117C84.9896 288.117 83.153 285.416 83.153 282.081C83.153 278.746 84.9896 276.045 87.2574 276.045C89.5252 276.045 91.3619 278.746 91.3619 282.081Z" fill="url(#paint2_radial_29_2898)"/>
<path style="mix-blend-mode:screen" opacity="0.8" d="M87.2855 271.674C87.2855 272.473 86.8438 273.122 86.3005 273.122C85.7573 273.122 85.3156 272.473 85.3156 271.674C85.3156 270.875 85.7573 270.225 86.3005 270.225C86.8438 270.225 87.2855 270.875 87.2855 271.674Z" fill="url(#paint3_radial_29_2898)"/>
<path style="mix-blend-mode:screen" opacity="0.8" d="M87.5589 283.565C87.5589 284.807 86.8754 285.813 86.0306 285.813C85.1859 285.813 84.5024 284.807 84.5024 283.565C84.5024 282.323 85.1859 281.313 86.0306 281.313C86.8754 281.313 87.5589 282.323 87.5589 283.565Z" fill="url(#paint4_radial_29_2898)"/>
<path style="mix-blend-mode:screen" opacity="0.8" d="M94.7863 269.081C94.7863 270.581 93.9591 271.792 92.9426 271.792C91.9262 271.792 91.099 270.576 91.099 269.081C91.099 267.586 91.9227 266.37 92.9426 266.37C93.9626 266.37 94.7863 267.586 94.7863 269.081Z" fill="url(#paint5_radial_29_2898)"/>
<path style="mix-blend-mode:screen" d="M92.6587 274.751C92.6587 275.06 92.4905 275.308 92.2802 275.308C92.0699 275.308 91.9016 275.06 91.9016 274.751C91.9016 274.442 92.0699 274.194 92.2802 274.194C92.4905 274.194 92.6587 274.442 92.6587 274.751Z" fill="url(#paint6_radial_29_2898)"/>
<path style="mix-blend-mode:screen" d="M89.3219 275.741C89.3219 276.375 88.9714 276.885 88.5438 276.885C88.1162 276.885 87.7657 276.37 87.7657 275.741C87.7657 275.112 88.1162 274.596 88.5438 274.596C88.9714 274.596 89.3219 275.112 89.3219 275.741Z" fill="url(#paint7_radial_29_2898)"/>
<path style="mix-blend-mode:screen" opacity="0.8" d="M102.504 277.442C102.504 281.828 100.086 285.385 97.0997 285.385C94.1133 285.385 91.6983 281.828 91.6983 277.442C91.6983 273.055 94.1168 269.493 97.0997 269.493C100.082 269.493 102.504 273.05 102.504 277.442Z" fill="url(#paint8_radial_29_2898)"/>
<path style="mix-blend-mode:screen" d="M92.5676 280.859C95.9605 275.766 99.7775 273.112 101.288 274.725C101.246 274.643 101.204 274.571 101.155 274.498C99.7705 272.504 95.7958 275.163 92.2767 280.442C88.7576 285.72 87.0296 291.617 88.4176 293.611C88.4667 293.684 88.5192 293.745 88.5753 293.807C87.4502 291.622 89.1782 285.957 92.5711 280.864L92.5676 280.859Z" fill="url(#paint9_linear_29_2898)"/>
<path style="mix-blend-mode:screen" opacity="0.4" d="M93.5911 279.632C95.277 271.416 95.3051 264.086 93.6927 262.844C93.7593 262.854 93.8259 262.87 93.889 262.901C95.6836 263.715 95.7222 271.282 93.9731 279.802C92.2241 288.323 89.3499 294.565 87.5553 293.751C87.4923 293.72 87.4292 293.684 87.3731 293.637C89.1747 293.946 91.9086 287.849 93.5946 279.632H93.5911Z" fill="url(#paint10_linear_29_2898)"/>
<path style="mix-blend-mode:screen" opacity="0.7" d="M90.9342 286.395C85.9115 284.374 82.1926 280.653 82.3959 277.921C82.3678 278.014 82.3433 278.107 82.3258 278.205C81.814 280.957 85.6206 284.885 90.8291 286.977C96.0376 289.07 100.671 288.534 101.183 285.787C101.201 285.689 101.211 285.591 101.218 285.488C100.447 287.988 95.957 288.416 90.9342 286.395Z" fill="url(#paint11_linear_29_2898)"/>
<path style="mix-blend-mode:screen" d="M90.7975 269.818C95.5364 268.328 99.739 269.38 100.422 272.158C100.419 272.05 100.408 271.942 100.394 271.834C99.9563 268.828 95.6205 267.643 90.7064 269.184C85.7923 270.725 82.161 274.416 82.5957 277.421C82.6097 277.529 82.6342 277.632 82.6588 277.735C82.5116 274.792 86.0587 271.313 90.7975 269.823V269.818Z" fill="url(#paint12_linear_29_2898)"/>
<path style="mix-blend-mode:screen" d="M95.7537 273.751C99.3254 280.648 100.167 288.611 97.7446 291.941C97.8462 291.849 97.9514 291.751 98.0495 291.637C100.808 288.55 100.04 280.246 96.3391 273.096C92.6342 265.947 87.3941 262.653 84.6391 265.741C84.541 265.849 84.4499 265.968 84.3622 266.091C87.1873 263.545 92.1855 266.854 95.7572 273.751H95.7537Z" fill="url(#paint13_linear_29_2898)"/>
<path style="mix-blend-mode:screen" d="M86.1218 279.045C85.9465 270.818 87.636 264.019 89.9388 263.442C89.8547 263.427 89.767 263.421 89.6829 263.427C87.2539 263.54 85.4313 270.54 85.61 279.065C85.7923 287.591 87.9094 294.415 90.3384 294.302C90.426 294.302 90.5101 294.281 90.5942 294.261C88.2739 293.9 86.297 287.266 86.1253 279.04L86.1218 279.045Z" fill="url(#paint14_linear_29_2898)"/>
<path style="mix-blend-mode:screen" opacity="0.7" d="M94.6496 290.776C90.0159 293.23 85.61 292.694 84.562 289.637C84.5795 289.761 84.6041 289.88 84.6321 290.003C85.4558 293.369 90.0194 294.034 94.8214 291.488C99.6268 288.941 102.851 284.153 102.028 280.792C102 280.674 101.965 280.56 101.926 280.447C102.445 283.782 99.2798 288.328 94.6461 290.776H94.6496Z" fill="url(#paint15_linear_29_2898)"/>
<g style="mix-blend-mode:screen">
<path d="M98.3685 268.839C98.3685 271.7 95.2665 274.024 91.439 274.024C87.6114 274.024 84.513 271.7 84.513 268.839C84.513 265.978 87.6149 263.653 91.4425 263.653C95.27 263.653 98.372 265.973 98.372 268.839H98.3685Z" fill="url(#paint16_linear_29_2898)"/>
</g>
</g>
<g clip-path="url(#clip3_29_2898)">
<path d="M136.647 299.655C129.489 299.655 123.67 290.973 123.67 280.313C123.67 269.652 129.489 260.97 136.647 260.97C143.804 260.97 149.623 269.644 149.623 280.313C149.623 290.982 143.804 299.655 136.647 299.655Z" fill="url(#paint17_linear_29_2898)"/>
<path d="M136.647 261.174C143.728 261.174 149.487 269.758 149.487 280.313C149.487 290.868 143.728 299.451 136.647 299.451C129.566 299.451 123.807 290.868 123.807 280.313C123.807 269.758 129.566 261.174 136.647 261.174ZM136.647 260.767C129.402 260.767 123.534 269.514 123.534 280.313C123.534 291.112 129.402 299.859 136.647 299.859C143.892 299.859 149.76 291.112 149.76 280.313C149.76 269.514 143.892 260.767 136.647 260.767Z" fill="#B2B4B7"/>
<path d="M146.209 280.313C146.209 288.188 141.93 294.565 136.647 294.565C131.363 294.565 127.085 288.188 127.085 280.313C127.085 272.437 131.363 266.061 136.647 266.061C141.93 266.061 146.209 272.437 146.209 280.313Z" fill="url(#paint18_linear_29_2898)"/>
<path d="M136.647 292.122C132.276 292.122 128.724 286.82 128.724 280.313C128.724 273.806 132.276 268.504 136.647 268.504C141.018 268.504 144.569 273.797 144.569 280.313C144.569 286.828 141.018 292.122 136.647 292.122Z" fill="url(#paint19_radial_29_2898)"/>
<path d="M136.647 268.911C140.865 268.911 144.296 274.025 144.296 280.313C144.296 286.6 140.865 291.715 136.647 291.715C132.429 291.715 128.998 286.6 128.998 280.313C128.998 274.025 132.429 268.911 136.647 268.911ZM136.647 268.097C132.117 268.097 128.451 273.561 128.451 280.313C128.451 287.064 132.117 292.529 136.647 292.529C141.176 292.529 144.843 287.056 144.843 280.313C144.843 273.569 141.171 268.097 136.647 268.097Z" fill="#8C98A0"/>
<g style="mix-blend-mode:multiply" opacity="0.8">
<path d="M141.515 270.499C141.564 271.045 141.603 271.599 141.603 272.169C141.603 278.912 137.936 284.385 133.407 284.385C131.582 284.385 129.905 283.481 128.539 281.982C129.085 287.936 132.505 292.529 136.647 292.529C141.171 292.529 144.843 287.056 144.843 280.313C144.843 276.29 143.531 272.722 141.515 270.499Z" fill="url(#paint20_linear_29_2898)"/>
</g>
</g>
</g>
<g filter="url(#filter0_f_29_2898)">
<ellipse cx="247.789" cy="609.263" rx="204.634" ry="51.5451" fill="#C6C6C6"/>
</g>
<defs>
<filter id="filter0_f_29_2898" x="0.887505" y="515.451" width="493.802" height="187.624" filterUnits="userSpaceOnUse" color-interpolation-filters="sRGB">
<feFlood flood-opacity="0" result="BackgroundImageFix"/>
<feBlend mode="normal" in="SourceGraphic" in2="BackgroundImageFix" result="shape"/>
<feGaussianBlur stdDeviation="21.1335" result="effect1_foregroundBlur_29_2898"/>
</filter>
<radialGradient id="paint0_radial_29_2898" cx="0" cy="0" r="1" gradientUnits="userSpaceOnUse" gradientTransform="translate(90.4306 296.079) scale(11.5678 3.73058)">
<stop offset="0.1" stop-color="#DADADA" stop-opacity="0.95"/>
<stop offset="1" stop-color="white" stop-opacity="0"/>
</radialGradient>
<radialGradient id="paint1_radial_29_2898" cx="0" cy="0" r="1" gradientUnits="userSpaceOnUse" gradientTransform="translate(91.4074 291.137) scale(11.9558 17.582)">
<stop stop-color="white"/>
<stop offset="1" stop-color="#B1BFC7"/>
</radialGradient>
<radialGradient id="paint2_radial_29_2898" cx="0" cy="0" r="1" gradientUnits="userSpaceOnUse" gradientTransform="translate(87.2574 282.081) scale(4.10444 6.03593)">
<stop offset="0.11" stop-color="white"/>
<stop offset="0.95"/>
</radialGradient>
<radialGradient id="paint3_radial_29_2898" cx="0" cy="0" r="1" gradientUnits="userSpaceOnUse" gradientTransform="translate(86.3005 271.669) scale(0.984924 1.44842)">
<stop offset="0.11" stop-color="white"/>
<stop offset="0.95"/>
</radialGradient>
<radialGradient id="paint4_radial_29_2898" cx="0" cy="0" r="1" gradientUnits="userSpaceOnUse" gradientTransform="translate(86.0306 283.56) scale(1.52821 2.24737)">
<stop offset="0.11" stop-color="white"/>
<stop offset="0.95"/>
</radialGradient>
<radialGradient id="paint5_radial_29_2898" cx="0" cy="0" r="1" gradientUnits="userSpaceOnUse" gradientTransform="translate(92.9426 269.081) scale(1.84367 2.71127)">
<stop offset="0.11" stop-color="white"/>
<stop offset="0.95"/>
</radialGradient>
<radialGradient id="paint6_radial_29_2898" cx="0" cy="0" r="1" gradientUnits="userSpaceOnUse" gradientTransform="translate(92.2802 274.751) scale(0.378547 0.556687)">
<stop offset="0.11" stop-color="white"/>
<stop offset="0.95"/>
</radialGradient>
<radialGradient id="paint7_radial_29_2898" cx="0" cy="0" r="1" gradientUnits="userSpaceOnUse" gradientTransform="translate(88.5438 275.741) scale(0.778125 1.1443)">
<stop offset="0.11" stop-color="white"/>
<stop offset="0.95"/>
</radialGradient>
<radialGradient id="paint8_radial_29_2898" cx="0" cy="0" r="1" gradientUnits="userSpaceOnUse" gradientTransform="translate(97.0997 277.442) scale(5.40131 7.9431)">
<stop offset="0.11" stop-color="white"/>
<stop offset="0.95"/>
</radialGradient>
<linearGradient id="paint9_linear_29_2898" x1="86.0388" y1="274.663" x2="69.1748" y2="287.02" gradientUnits="userSpaceOnUse">
<stop/>
<stop offset="0.6" stop-color="white"/>
<stop offset="0.9"/>
</linearGradient>
<linearGradient id="paint10_linear_29_2898" x1="-367.206" y1="-1535.13" x2="-381.914" y2="-1514.39" gradientUnits="userSpaceOnUse">
<stop/>
<stop offset="0.6" stop-color="white"/>
<stop offset="0.9"/>
</linearGradient>
<linearGradient id="paint11_linear_29_2898" x1="-45.2181" y1="-30.1344" x2="-26.8278" y2="-27.5492" gradientUnits="userSpaceOnUse">
<stop/>
<stop offset="0.6" stop-color="white"/>
<stop offset="0.9"/>
</linearGradient>
<linearGradient id="paint12_linear_29_2898" x1="99.9533" y1="269.541" x2="81.5589" y2="272.079" gradientUnits="userSpaceOnUse">
<stop/>
<stop offset="0.6" stop-color="white"/>
<stop offset="0.9"/>
</linearGradient>
<linearGradient id="paint13_linear_29_2898" x1="781.057" y1="-2905.91" x2="759.376" y2="-2931.85" gradientUnits="userSpaceOnUse">
<stop/>
<stop offset="0.6" stop-color="white"/>
<stop offset="0.9"/>
</linearGradient>
<linearGradient id="paint14_linear_29_2898" x1="93.6603" y1="253.125" x2="94.4499" y2="284.443" gradientUnits="userSpaceOnUse">
<stop/>
<stop offset="0.6" stop-color="white"/>
<stop offset="0.9"/>
</linearGradient>
<linearGradient id="paint15_linear_29_2898" x1="555.993" y1="691.508" x2="575.964" y2="687.706" gradientUnits="userSpaceOnUse">
<stop/>
<stop offset="0.6" stop-color="white"/>
<stop offset="0.9"/>
</linearGradient>
<linearGradient id="paint16_linear_29_2898" x1="89.0176" y1="277.21" x2="89.0176" y2="290.913" gradientUnits="userSpaceOnUse">
<stop stop-color="white"/>
<stop offset="1"/>
</linearGradient>
<linearGradient id="paint17_linear_29_2898" x1="132.555" y1="265.661" x2="150.828" y2="295.106" gradientUnits="userSpaceOnUse">
<stop stop-color="white"/>
<stop offset="1" stop-color="#D4D6D7"/>
</linearGradient>
<linearGradient id="paint18_linear_29_2898" x1="144.657" y1="295.184" x2="124.99" y2="278.752" gradientUnits="userSpaceOnUse">
<stop stop-color="white"/>
<stop offset="1" stop-color="#B8BABC"/>
</linearGradient>
<radialGradient id="paint19_radial_29_2898" cx="0" cy="0" r="1" gradientUnits="userSpaceOnUse" gradientTransform="translate(134.554 274.824) scale(8.39237 12.5094)">
<stop stop-color="white"/>
<stop offset="1" stop-color="#B1BFC7"/>
</radialGradient>
<linearGradient id="paint20_linear_29_2898" x1="135.407" y1="277.112" x2="145.455" y2="288.744" gradientUnits="userSpaceOnUse">
<stop stop-color="white"/>
<stop offset="1" stop-color="#B7C6CE"/>
</linearGradient>
<clipPath id="clip0_29_2898">
<rect width="421" height="494.637" fill="white" transform="translate(32)"/>
</clipPath>
<clipPath id="clip1_29_2898">
<rect width="24.0695" height="35.5488" fill="white" transform="translate(167.048 262.385)"/>
</clipPath>
<clipPath id="clip2_29_2898">
<rect width="23.193" height="37.1125" fill="white" transform="translate(79.8442 261.519)"/>
</clipPath>
<clipPath id="clip3_29_2898">
<rect width="26.2262" height="39.0918" fill="white" transform="translate(123.534 260.767)"/>
</clipPath>
</defs>
</svg>
